Coordinates
version=1
nRows=14
nColumns=46
inDegrees=yes

Units are S.I. units (second, meters, Newtons, ...)
Angles are in degrees.

endheader
time	pelvis_tilt	pelvis_list	pelvis_rotation	pelvis_tx	pelvis_ty	pelvis_tz	bb_angle	bb_tx	bb_ty	bb_tz	hip_flexion_r	hip_adduction_r	hip_rotation_r	knee_angle_r	knee_angle_r_beta	ankle_angle_r	subtalar_angle_r	mtp_angle_r	crank_angle_r	hip_flexion_l	hip_adduction_l	hip_rotation_l	knee_angle_l	knee_angle_l_beta	ankle_angle_l	subtalar_angle_l	mtp_angle_l	crank_angle_l	lumbar_extension	lumbar_bending	lumbar_rotation	arm_flex_r	arm_add_r	arm_rot_r	elbow_flex_r	pro_sup_r	wrist_flex_r	wrist_dev_r	arm_flex_l	arm_add_l	arm_rot_l	elbow_flex_l	pro_sup_l	wrist_flex_l	wrist_dev_l
      2.50500000	    -21.01325642	      5.20081316	      3.64404826	      0.17750923	      1.06125135	     -0.21359423	      0.00000000	      0.50000000	      0.00000000	      0.25000000	     48.18239702	    -12.11588727	     -4.49699562	     30.80237019	      0.53760278	    -29.94644059	     -1.15243109	      0.00000000	      0.00000000	     82.33672116	     -1.31188327	     -0.40343663	    114.95343765	      2.00631597	      3.23342584	     -9.97235585	      0.00000000	      0.00000000	    -51.45557741	     -1.16589376	     -6.21439104	     82.91298172	    -11.34315069	     30.24598051	     51.13955870	     43.17712879	      0.00000000	      0.00000000	     81.32696481	    -11.48937724	     22.70116509	     51.86268850	     44.53013356	      0.00000000	      0.00000000
      2.51000000	    -21.08863484	      5.27018118	      3.79460444	      0.17696130	      1.06126539	     -0.21291303	      0.00000000	      0.50000000	      0.00000000	      0.25000000	     47.52107167	    -12.11176078	     -4.53164604	     30.07793293	      0.52495896	    -31.13613230	     -1.84190858	      0.00000000	      0.00000000	     83.26161542	     -1.14692087	     -0.16742116	    115.40383268	      2.01417685	      4.39548939	     -9.00966403	      0.00000000	      0.00000000	    -51.34947030	     -1.20879062	     -6.41330258	     83.17664411	    -11.35333813	     30.85266025	     50.43918329	     43.21021867	      0.00000000	      0.00000000	     81.50449219	    -11.47801360	     22.89521967	     51.44855110	     44.52014814	      0.00000000	      0.00000000
      2.51500000	    -21.30729168	      5.54453574	      4.08679845	      0.17627828	      1.06116584	     -0.21259488	      0.00000000	      0.50000000	      0.00000000	      0.25000000	     47.11201070	    -12.43743499	     -4.53772009	     29.62058230	      0.51697669	    -31.72595995	     -1.92442364	      0.00000000	      0.00000000	     84.25894288	     -0.69891282	     -0.24407179	    115.64333761	      2.01835700	      5.05198620	     -9.05633787	      0.00000000	      0.00000000	    -51.17855410	     -1.36350816	     -6.78989286	     83.29307506	    -11.46774631	     30.96608816	     50.23013721	     43.21086291	      0.00000000	      0.00000000	     81.68350517	    -11.36615223	     22.97093625	     51.41681518	     44.53110012	      0.00000000	      0.00000000
      2.52000000	    -21.49631570	      5.79034181	      4.36466302	      0.17551675	      1.06122244	     -0.21223956	      0.00000000	      0.50000000	      0.00000000	      0.25000000	     46.65808425	    -12.68210094	     -4.44901097	     29.16006718	      0.50893918	    -32.42349182	     -2.28211558	      0.00000000	      0.00000000	     85.16336939	     -0.27711506	     -0.33082350	    115.75118593	      2.02023931	      5.96445535	     -8.90524817	      0.00000000	      0.00000000	    -51.04734815	     -1.49489215	     -7.18975415	     83.43470535	    -11.55235357	     31.14443024	     49.93586561	     43.20728623	      0.00000000	      0.00000000	     81.87870081	    -11.27156856	     23.05988889	     51.32050800	     44.53424095	      0.00000000	      0.00000000
      2.52500000	    -21.55224956	      6.15397378	      4.40514096	      0.17432955	      1.06112271	     -0.21168953	      0.00000000	      0.50000000	      0.00000000	      0.25000000	     46.23285648	    -12.81596949	     -3.99700093	     28.87423720	      0.50395051	    -33.08338142	     -3.09830301	      0.00000000	      0.00000000	     85.91065308	     -0.02634557	     -0.46975759	    115.84505543	      2.02187764	      6.88158458	     -8.52499141	      0.00000000	      0.00000000	    -50.96186646	     -1.88139118	     -7.58509634	     83.96365824	    -11.43426615	     31.74068761	     49.06504820	     43.19387320	      0.00000000	      0.00000000	     82.19471523	    -11.24464840	     23.23663513	     50.85971481	     44.50857808	      0.00000000	      0.00000000
      2.53000000	    -21.63763436	      6.27419383	      4.66038160	      0.17354753	      1.06107144	     -0.21118710	      0.00000000	      0.50000000	      0.00000000	      0.25000000	     45.73199649	    -12.91315911	     -3.87091897	     28.69772740	      0.50086983	    -33.10896440	     -3.28996295	      0.00000000	      0.00000000	     86.69447170	      0.33537996	     -0.39643736	    115.88323150	      2.02254394	      7.47630061	     -8.69198374	      0.00000000	      0.00000000	    -50.90302045	     -1.96015310	     -7.91333591	     84.12151899	    -11.52884333	     31.73682644	     48.95945078	     43.18238684	      0.00000000	      0.00000000	     82.30603808	    -11.15178170	     23.27345362	     50.85870078	     44.51426383	      0.00000000	      0.00000000
      2.53500000	    -21.81277944	      6.47931344	      5.00682271	      0.17242824	      1.06114243	     -0.21097987	      0.00000000	      0.50000000	      0.00000000	      0.25000000	     45.34103537	    -13.13379741	     -3.68907472	     28.52527837	      0.49786003	    -33.26322988	     -3.80499928	      0.00000000	      0.00000000	     87.42516211	      0.89914932	     -0.42364963	    115.66198885	      2.01868252	      8.46189676	     -8.83106288	      0.00000000	      0.00000000	    -50.77384860	     -2.01119605	     -8.25277804	     84.29204856	    -11.56672055	     31.81324079	     48.74315873	     43.16425084	      0.00000000	      0.00000000	     82.53504554	    -11.02844143	     23.30608067	     50.84100506	     44.51686750	      0.00000000	      0.00000000
      2.54000000	    -21.87629735	      6.84853107	      5.32396600	      0.17130014	      1.06137218	     -0.21059419	      0.00000000	      0.50000000	      0.00000000	      0.25000000	     45.00727862	    -13.47143542	     -3.52018492	     28.62108622	      0.49953219	    -33.95011035	     -5.07346287	      0.00000000	      0.00000000	     87.94110820	      1.41771997	     -0.61984500	    115.36257340	      2.01345674	      9.56852710	     -8.39790092	      0.00000000	      0.00000000	    -50.73097862	     -2.26229116	     -8.86186386	     84.56324205	    -11.40940934	     32.32385398	     47.88111315	     43.11331400	      0.00000000	      0.00000000	     82.80808633	    -10.92912747	     23.32067258	     50.43895568	     44.46767293	      0.00000000	      0.00000000
      2.54500000	    -21.82450148	      7.05807997	      5.46581189	      0.16976168	      1.06171485	     -0.20998214	      0.00000000	      0.50000000	      0.00000000	      0.25000000	     44.56548803	    -13.50998272	     -3.07630512	     28.71728781	      0.50121122	    -34.02850774	     -5.83286356	      0.00000000	      0.00000000	     88.33673721	      1.76013586	     -0.66241976	    115.01097945	      2.00732027	     10.58114244	     -8.43865938	      0.00000000	      0.00000000	    -50.73384226	     -2.38919526	     -9.37843143	     85.67438219	    -10.71103564	     34.05528529	     45.45018847	     43.04014066	      0.00000000	      0.00000000	     83.30625951	    -10.92727790	     23.27270152	     49.34114655	     44.35601349	      0.00000000	      0.00000000
      2.55000000	    -21.97564941	      7.30182812	      5.70498320	      0.16839739	      1.06171905	     -0.20980995	      0.00000000	      0.50000000	      0.00000000	      0.25000000	     44.43660521	    -13.69573833	     -2.72186729	     29.06359045	      0.50725535	    -34.05334135	     -6.63078650	      0.00000000	      0.00000000	     88.85145180	      2.24674098	     -0.78809510	    114.55687257	      1.99939461	     11.61729873	     -8.59663442	      0.00000000	      0.00000000	    -50.62117387	     -2.54936813	     -9.73662417	     85.79367645	    -10.81639225	     34.14487739	     45.19472934	     43.03661854	      0.00000000	      0.00000000	     83.44029761	    -10.81817471	     23.21013889	     49.39290807	     44.37161625	      0.00000000	      0.00000000
      2.55500000	    -22.00766462	      7.59550654	      5.92581118	      0.16682203	      1.06201902	     -0.20946237	      0.00000000	      0.50000000	      0.00000000	      0.25000000	     44.26762074	    -13.88161900	     -2.22976047	     29.53695056	      0.51551704	    -34.07087163	     -7.56340981	      0.00000000	      0.00000000	     89.12750400	      2.71974545	     -0.96841454	    113.95382900	      1.98886951	     12.76842766	     -8.73501510	      0.00000000	      0.00000000	    -50.66336496	     -2.75446969	    -10.16770687	     86.04062806	    -10.77106768	     34.37194839	     44.78646110	     43.03110577	      0.00000000	      0.00000000	     83.66620090	    -10.65069546	     23.02052838	     49.28363204	     44.35117095	      0.00000000	      0.00000000
      2.56000000	    -22.07950848	      7.84844030	      6.25708256	      0.16517621	      1.06247211	     -0.20919342	      0.00000000	      0.50000000	      0.00000000	      0.25000000	     44.18344819	    -14.10334317	     -1.81079409	     30.13759762	      0.52600031	    -34.09121094	     -8.48522430	      0.00000000	      0.00000000	     89.31665986	      3.32877371	     -1.06535248	    113.18466752	      1.97544511	     13.99868014	     -8.91561888	      0.00000000	      0.00000000	    -50.69066302	     -2.83746002	    -10.57559605	     86.27416119	    -10.78242038	     34.52724311	     44.46473380	     43.01837590	      0.00000000	      0.00000000	     83.88166852	    -10.44335789	     22.85704048	     49.19493710	     44.33010823	      0.00000000	      0.00000000
      2.56500000	    -22.08707140	      8.07124366	      6.53148837	      0.16339974	      1.06285705	     -0.20905693	      0.00000000	      0.50000000	      0.00000000	      0.25000000	     44.18368172	    -14.28477878	     -1.33380852	     30.98721502	      0.54082893	    -34.06467149	     -9.39001925	      0.00000000	      0.00000000	     89.38816152	      3.91154302	     -1.12845103	    112.36072647	      1.96106463	     15.30891837	     -9.09365153	      0.00000000	      0.00000000	    -50.76766523	     -2.90332721	    -10.93836842	     86.52988328	    -10.66451604	     34.72965170	     44.26039289	     43.02404877	      0.00000000	      0.00000000	     84.10284401	    -10.22051156	     22.64127219	     49.07597693	     44.29614817	      0.00000000	      0.00000000
      2.57000000	    -22.13831106	      8.20412144	      6.76864047	      0.16152585	      1.06328684	     -0.20900135	      0.00000000	      0.50000000	      0.00000000	      0.25000000	     44.25612665	    -14.35551371	     -0.80074724	     31.83467525	      0.55561990	    -34.03600455	    -10.18955737	      0.00000000	      0.00000000	     89.39733255	      4.45832952	     -1.11677430	    111.39789340	      1.94426002	     16.75013827	     -9.45043453	      0.00000000	      0.00000000	    -50.81000410	     -2.91782765	    -11.19099752	     86.81748404	    -10.66667828	     34.79625275	     44.08649516	     43.00956113	      0.00000000	      0.00000000	     84.28993661	    -10.01113016	     22.47413320	     49.04091089	     44.27635440	      0.00000000	      0.00000000
